HIERARCHY
ROOT hip
{
	OFFSET 0.000000 0.000000 0.000000 
	CHANNELS 6 Xposition Yposition Zposition Xrotation Zrotation Yrotation
	JOINT abdomen
	{
		OFFSET 0.000000 3.402643 0.000000 
		CHANNELS 3 Xrotation Zrotation Yrotation
		JOINT chest
		{
			OFFSET 0.000000 8.438565 -0.680529 
			CHANNELS 3 Xrotation Zrotation Yrotation
			JOINT neck
			{
				OFFSET 0.000000 10.207942 -0.272212 
				CHANNELS 3 Xrotation Zrotation Yrotation
				JOINT head
				{
					OFFSET 0.000000 3.130431 0.000000 
					CHANNELS 3 Xrotation Zrotation Yrotation
					End Site
					{
						OFFSET 0.000000 3.130435 0.000000 
					}
				}
			}
			JOINT lCollar
			{
				OFFSET 3.470700 6.669187 -0.816635 
				CHANNELS 3 Yrotation Zrotation Xrotation
				JOINT lShldr
				{
					OFFSET 3.198488 0.000000 0.000000 
					CHANNELS 3 Zrotation Yrotation Xrotation
					JOINT lForeArm
					{
						OFFSET 10.139888 0.000000 0.000000 
						CHANNELS 3 Yrotation Zrotation Xrotation
						JOINT lHand
						{
							OFFSET 8.370511 0.000000 0.000000 
							CHANNELS 3 Zrotation Yrotation Xrotation
							End Site
							{
								OFFSET 4.083176 0.000000 0.000000 
							}
						}
					}
				}
			}
			JOINT rCollar
			{
				OFFSET -3.470700 6.669187 -0.816635 
				CHANNELS 3 Yrotation Zrotation Xrotation
				JOINT rShldr
				{
					OFFSET -3.198488 0.000000 0.000000 
					CHANNELS 3 Zrotation Yrotation Xrotation
					JOINT rForeArm
					{
						OFFSET -10.139888 0.000000 0.000000 
						CHANNELS 3 Yrotation Zrotation Xrotation
						JOINT rHand
						{
							OFFSET -8.370511 0.000000 0.000000 
							CHANNELS 3 Zrotation Yrotation Xrotation
							End Site
							{
								OFFSET -4.083176 0.000000 0.000000 
							}
						}
					}
				}
			}
		}
	}
	JOINT lThigh
	{
		OFFSET 5.308129 -1.633274 1.361059 
		CHANNELS 3 Xrotation Zrotation Yrotation
		JOINT lShin
		{
			OFFSET -2.041588 -20.007561 0.000000 
			CHANNELS 3 Xrotation Zrotation Yrotation
			JOINT lFoot
			{
				OFFSET 0.000000 -19.190928 -1.224953 
				CHANNELS 3 Xrotation Yrotation Zrotation
				End Site
				{
					OFFSET 0.000000 -2.449906 4.627600 
				}
			}
		}
	}
	JOINT rThigh
	{
		OFFSET -5.308129 -1.633274 1.361059 
		CHANNELS 3 Xrotation Zrotation Yrotation
		JOINT rShin
		{
			OFFSET 2.041588 -20.007561 0.000000 
			CHANNELS 3 Xrotation Zrotation Yrotation
			JOINT rFoot
			{
				OFFSET 0.000000 -19.190928 -1.224953 
				CHANNELS 3 Xrotation Yrotation Zrotation
				End Site
				{
					OFFSET 0.000000 -2.449906 4.627600 
				}
			}
		}
	}
}
MOTION
Frames: 8
Frame Time: 0.033333
32.043705 49.489346 42.089821 -6.804824 -8.000623 -63.424599 36.141071 2.951819 -5.366635 -25.458981 0.000000 -0.009766 12.284911 -21.202156 29.807343 -14.248695 12.029796 24.912409 -3.507161 -4.469219 9.076376 -50.363194 -63.786289 0.125580 -85.800888 -0.239594 20.375053 21.198523 -21.843481 -4.583694 20.512960 1.852851 25.000000 37.901428 71.795372 -6.460032 65.356102 -5.912940 -20.723795 -31.940905 44.454639 -12.930675 -8.279722 17.935608 4.240378 14.959513 1.005721 23.133318 11.586081 -0.949605 -15.188460 -6.630102 -11.638052 -7.823112 41.647156 -5.742641 -15.605347 -19.123648 -3.359647 14.333875 
32.046165 49.399151 41.979816 -6.808619 -8.223650 -63.943752 35.716396 2.781904 -4.556644 -25.458981 0.000000 -0.009766 12.086726 -19.859631 29.684586 -13.300129 12.041085 24.956749 -4.632636 -6.370819 10.663143 -49.201664 -58.485584 0.445587 -85.287254 -0.496773 16.248997 21.683865 -24.203779 -5.120542 18.985430 2.802929 25.000000 46.151321 68.218040 7.525910 63.401688 -6.007431 -22.458176 -33.007008 44.315117 -13.343883 -7.850804 17.888163 6.074770 14.833224 2.111438 22.223534 11.828842 -0.978980 -15.603798 -7.215259 -11.110098 -5.943040 42.603127 -5.264387 -16.823130 -19.325115 -3.386623 14.389209 
32.044113 49.328999 41.958408 -6.792607 -8.437320 -64.253456 35.179478 3.137443 -4.135697 -25.458981 0.000000 -0.009766 11.368402 -18.891584 29.745167 -11.056511 11.522274 25.252005 -4.804075 -7.979447 11.404098 -50.001072 -52.637451 2.292116 -84.784950 -0.845829 11.497370 21.047661 -26.895342 -5.433389 17.946012 3.036938 24.778698 52.412022 66.634995 18.974157 58.873375 -6.799351 -25.281616 -32.848335 45.651150 -13.707660 -7.751928 17.767385 7.533074 15.133937 3.036896 21.078953 11.758544 -0.966927 -16.005768 -7.499053 -10.964710 -5.001245 43.246532 -4.844778 -17.242781 -19.532106 -3.415764 14.398032 
31.947636 49.257030 42.030014 -7.167114 -8.915308 -64.275597 34.964485 3.440913 -3.987111 -25.458981 0.000000 -0.009766 11.650091 -19.084866 29.773788 -11.195029 11.442610 25.327179 -4.939786 -9.560333 11.684871 -50.563267 -46.780930 3.679599 -83.169075 -1.416827 3.836901 15.634672 -30.889729 -4.431187 17.696173 3.367372 24.671492 57.776501 65.634720 29.094246 53.019352 -7.310369 -27.816696 -33.567417 46.569023 -14.346404 -7.087887 17.355473 9.473524 15.317595 4.003614 19.298426 11.467784 -0.945531 -16.359106 -6.871271 -10.940140 -4.978255 43.518589 -5.186889 -17.326937 -19.758781 -3.515353 14.690400 
31.898945 49.161369 42.103989 -7.470496 -9.238697 -64.098228 35.373436 3.378733 -3.747428 -25.458981 0.000000 -0.009766 10.896518 -18.032549 29.535971 -9.975608 10.986703 25.237122 -5.150549 -10.658173 11.539653 -51.010418 -42.273239 5.854468 -81.330780 -1.736039 -1.262867 14.585316 -32.630287 -4.311502 17.956987 3.838723 24.446533 60.463722 63.850540 35.014824 48.900116 -7.253828 -30.123346 -33.172432 46.500809 -14.136710 -7.157469 17.037113 9.692760 16.259550 4.499202 18.878880 10.972157 -0.936571 -16.658018 -6.580561 -11.285917 -4.930351 44.094879 -5.030663 -17.308235 -20.108530 -3.619469 14.858795 
31.890879 49.115368 42.200062 -7.584433 -9.013569 -63.815701 35.040504 3.244923 -3.169457 -25.458981 0.000000 -0.009766 11.626750 -17.488535 29.092886 -10.504854 10.153031 25.168438 -5.016726 -11.511326 11.451797 -52.506195 -39.222744 8.604864 -77.264503 -1.766335 -5.879909 13.306582 -35.494484 -4.194729 17.690157 4.524262 23.912073 63.924675 62.985485 42.363506 42.972816 -6.847389 -33.691841 -32.318096 47.001919 -13.911155 -7.957811 16.705215 8.955889 17.289730 4.521182 19.224268 10.493451 -0.909367 -16.750393 -6.853973 -12.017895 -4.847594 44.626106 -4.463407 -17.173134 -20.439661 -3.659156 14.897541 
31.824419 49.071632 42.290710 -7.684534 -9.069586 -63.431339 35.121593 2.868162 -2.219606 -25.458981 0.000000 -0.009766 11.450471 -16.458792 28.632963 -10.131863 9.385366 24.984474 -5.282520 -11.643470 12.323607 -54.961254 -37.729198 11.032575 -72.797745 -1.101564 -8.816018 12.640989 -37.306732 -4.156164 17.254488 5.623273 23.327768 67.511414 63.128510 49.721561 34.993755 -5.653570 -38.002460 -31.450136 48.985901 -14.135375 -8.446832 16.531776 8.750253 18.293587 4.687366 18.925846 9.920705 -0.834764 -16.916018 -6.551391 -12.487083 -4.980686 44.810989 -3.991910 -17.082266 -20.730352 -3.708819 14.952189 
31.737778 49.034737 42.387691 -7.694422 -9.069377 -62.736443 35.302338 2.944719 -1.687766 -25.458981 0.000000 -0.009766 10.786989 -16.341555 28.456823 -9.448692 9.350572 24.735901 -5.252200 -12.050338 11.990789 -57.427177 -35.638283 13.674353 -69.149574 -0.227279 -11.550733 11.944569 -38.273319 -3.990552 17.384027 5.961770 22.599756 72.702690 63.363911 57.262714 27.308676 -3.889490 -41.961819 -30.637402 50.829651 -14.313231 -9.188381 16.413340 8.859995 19.414242 4.911962 17.945532 9.244583 -0.703180 -16.991201 -6.083807 -12.870246 -5.408562 44.841408 -3.643107 -17.137993 -20.975819 -3.783695 15.147673 
